<?xml version="1.0" encoding="UTF-8" standalone="no"?>
<!-- Created with Inkscape (http://www.inkscape.org/) -->

<svg
   xmlns:dc="http://purl.org/dc/elements/1.1/"
   xmlns:cc="http://creativecommons.org/ns#"
   xmlns:rdf="http://www.w3.org/1999/02/22-rdf-syntax-ns#"
   xmlns:svg="http://www.w3.org/2000/svg"
   xmlns="http://www.w3.org/2000/svg"
   xmlns:sodipodi="http://sodipodi.sourceforge.net/DTD/sodipodi-0.dtd"
   xmlns:inkscape="http://www.inkscape.org/namespaces/inkscape"
   width="32"
   height="32"
   id="svg2"
   version="1.1"
   inkscape:version="0.48.3.1 r9886"
   sodipodi:docname="poussin.svg">
  <defs
     id="defs4" />
  <sodipodi:namedview
     id="base"
     pagecolor="#ffffff"
     bordercolor="#666666"
     borderopacity="1.0"
     inkscape:pageopacity="0.0"
     inkscape:pageshadow="2"
     inkscape:zoom="14.231938"
     inkscape:cx="17.756422"
     inkscape:cy="17.700236"
     inkscape:document-units="px"
     inkscape:current-layer="layer1"
     showgrid="false"
     fit-margin-top="0"
     fit-margin-left="0"
     fit-margin-right="0"
     fit-margin-bottom="0"
     inkscape:window-width="1302"
     inkscape:window-height="744"
     inkscape:window-x="64"
     inkscape:window-y="24"
     inkscape:window-maximized="1" />
  <metadata
     id="metadata7">
    <rdf:RDF>
      <cc:Work
         rdf:about="">
        <dc:format>image/svg+xml</dc:format>
        <dc:type
           rdf:resource="http://purl.org/dc/dcmitype/StillImage" />
        <dc:title />
      </cc:Work>
    </rdf:RDF>
  </metadata>
  <g
     inkscape:label="Calque 1"
     inkscape:groupmode="layer"
     id="layer1"
     transform="translate(-149.3679,-472.67987)">
    <path
       style="fill:#ff6600;fill-opacity:1;fill-rule:evenodd;stroke:none"
       d="m 157.69377,495.72846 c 0.33305,2.27774 -1.72387,1.78773 -2.17668,1.89663 -0.45282,0.10891 -1.09422,-0.16793 -1.94382,-0.42446 0.1194,0.0637 0.1634,0.67923 0.1634,0.67923 0,0 -0.66525,-0.35536 -0.99729,-0.55465 -0.33204,-0.19929 -1.32604,-0.55487 -1.41936,1.30269 2.14912,-0.45244 4.19963,2.1118 4.51674,2.54429 0.3171,0.43246 2.29207,1.94788 1.62577,3.23627 1.03996,-0.38721 0.56478,-2.65809 0.56478,-2.65809 0,0 1.12739,-0.0994 2.70844,1.9072 0.53174,-0.79024 0.38721,-2.48982 0.0542,-2.97464 -1.94188,0.14658 -3.57453,-1.2298 -3.74236,-2.06487 2.54552,-0.58593 1.78129,-2.63404 1.67216,-2.75811 -0.10912,-0.12405 -0.76758,-0.41002 -1.02598,-0.13149 z"
       id="path4284"
       inkscape:connector-curvature="0"
       sodipodi:nodetypes="csccscscccccsc" />
    <path
       style="fill:#aa4400;fill-opacity:1;fill-rule:evenodd;stroke:none"
       d="m 157.92904,500.64217 c -0.44372,-0.23428 -0.76633,-0.39385 -0.76633,-0.39385 0.58808,0.49909 0.80927,1.04898 0.88023,1.50113 0.0813,-0.004 1.17261,-0.0226 2.69382,1.90796 0.13191,-0.19602 0.21884,-0.44964 0.27496,-0.72518 -0.18565,-0.28189 -0.43678,-0.607 -0.77283,-0.88953 -0.49174,-0.41336 -1.5704,-1.01001 -2.30985,-1.40053 z"
       id="path4290"
       inkscape:connector-curvature="0"
       sodipodi:nodetypes="sccccss" />
    <path
       style="fill:#aa4400;fill-opacity:1;fill-rule:evenodd;stroke:none"
       d="m 153.62363,498.43534 c -0.62758,-0.32145 -1.44013,-0.58331 -2.27932,-0.0936 -0.0103,0.0892 -0.0194,0.18303 -0.0245,0.28532 2.14913,-0.45243 4.19943,2.11194 4.51653,2.54442 0.31708,0.43249 2.29347,1.94886 1.62718,3.23727 0.21992,-0.0818 0.37104,-0.24874 0.47427,-0.45979 -0.0481,-0.91324 -0.5949,-1.68796 -0.69617,-1.91828 -0.13857,-0.31519 -0.79082,-0.85755 -0.9542,-1.53679 -0.16336,-0.67922 -1.29011,-1.28345 -2.01447,-1.69231 -0.18112,-0.10225 -0.39995,-0.23853 -0.6493,-0.36622 z"
       id="path4292"
       inkscape:connector-curvature="0" />
    <path
       style="fill:#fece00;fill-opacity:1;fill-rule:evenodd;stroke:none"
       d="m 175.36825,477.10711 c 5.57758,-1.93195 0.83088,-4.04936 -0.15102,-4.02027 0.93576,2.60212 0.15102,4.02027 0.15102,4.02027 z"
       id="path4065"
       inkscape:connector-curvature="0" />
    <path
       style="fill:#ff6600;fill-opacity:1;fill-rule:evenodd;stroke:none"
       d="m 170.84187,500.75247 c 2.29419,-1.39646 2.95207,-0.74565 3.18236,-0.52388 0.2303,0.22179 1.53869,1.5402 1.39198,2.5286 -0.44979,-0.37862 -1.27495,-0.44119 -1.27495,-0.44119 0,0 -2.88387,-0.83894 -2.92771,-0.88834 -0.0439,-0.0493 -0.37168,-0.67519 -0.37168,-0.67519 z"
       id="path4296"
       inkscape:connector-curvature="0"
       inkscape:transform-center-x="-2.8826795"
       inkscape:transform-center-y="-1.3105487" />
    <path
       style="fill:#aa4400;fill-opacity:1;fill-rule:evenodd;stroke:none"
       d="m 174.55152,501.61617 c -0.69932,-0.31274 -1.71719,-0.65295 -3.29925,-1.10212 -0.13091,0.0719 -0.26734,0.15022 -0.41071,0.23751 0,0 0.32718,0.62459 0.37101,0.67401 0.0439,0.0494 2.92913,0.88944 2.92913,0.88944 2e-5,1e-5 0.82607,0.0628 1.27587,0.44139 0.0346,-0.23428 -0.0152,-0.48755 -0.11011,-0.73991 -0.20962,-0.13349 -0.45121,-0.26404 -0.75593,-0.40032 z"
       id="path4304"
       inkscape:connector-curvature="0"
       inkscape:transform-center-x="-2.8872246"
       inkscape:transform-center-y="-0.96715557" />
    <path
       style="fill:#ff6600;fill-opacity:1;fill-rule:evenodd;stroke:none"
       d="m 166.0192,502.56344 c -0.78012,-1.44558 0.17934,-2.49228 1.72015,-1.76115 1.54082,0.73111 1.5923,-0.63681 2.66826,-0.39905 1.07593,0.23775 2.51474,1.08136 3.73847,1.04312 1.22373,-0.0383 0.69963,2.87941 0.4833,3.07273 -0.21633,0.19335 -0.59728,-1.44374 -1.25572,-1.49762 -0.65845,-0.0538 -1.14528,-0.5569 -1.67973,-0.71359 -0.53443,-0.15667 -4.08442,-0.82806 -4.74611,-0.54238 -0.42117,0.1818 -0.78737,0.38786 -0.92862,0.79793 z"
       id="path4294"
       inkscape:connector-curvature="0"
       sodipodi:nodetypes="csssssssc"
       inkscape:transform-center-x="0.34317667"
       inkscape:transform-center-y="-0.0026589025" />
    <path
       style="fill:#aa4400;fill-opacity:1;fill-rule:evenodd;stroke:none"
       d="m 172.98198,502.08378 c -0.26368,-0.11613 -0.55241,-0.22701 -0.9295,-0.35374 -0.7542,-0.25347 -2.76858,-0.0906 -3.25384,-0.12054 -0.48528,-0.0301 -1.54883,-0.47277 -2.06758,-0.30768 -0.42112,0.13402 -0.55478,0.22056 -0.81578,1.04141 0.031,0.0721 0.0618,0.14686 0.10204,0.22119 0.14124,-0.41007 0.51094,-0.6182 0.93208,-0.80003 0.6617,-0.28567 4.21115,0.38897 4.74559,0.54565 0.53444,0.1567 1.01832,0.65683 1.67675,0.71069 0.65842,0.0539 1.03896,1.69241 1.2553,1.49908 0.0454,-0.0404 0.10415,-0.20444 0.15758,-0.43153 -0.24266,-0.67136 -0.68068,-1.40749 -1.01906,-1.60372 -0.28213,-0.16363 -0.51985,-0.28464 -0.78357,-0.40078 z"
       id="path4309"
       inkscape:connector-curvature="0"
       inkscape:transform-center-x="0.34219764"
       inkscape:transform-center-y="0.50264018" />
    <path
       style="fill:#ff6600;fill-opacity:1;fill-rule:evenodd;stroke:none"
       d="m 170.47255,500.41819 c 0.51341,-2.68864 -1.92701,-4.23386 -2.4039,-4.55917 -0.47686,-0.32532 -1.15178,0.43985 -1.18862,0.77743 2.45205,1.25569 2.48036,4.34599 2.33946,4.5014 -0.1163,0.12829 1.37703,-0.60365 1.25306,-0.71966 z"
       id="path4314"
       inkscape:connector-curvature="0"
       sodipodi:nodetypes="cscsc"
       inkscape:transform-center-x="2.2226449"
       inkscape:transform-center-y="-4.6447603" />
    <path
       style="fill:#fece00;fill-opacity:1;fill-rule:evenodd;stroke:none"
       d="m 151.87721,480.00462 c 1.64047,2.95215 1.30777,0.36829 1.30777,0.36829 1.79337,1.74097 6.52427,1.91743 6.52427,1.91743 l 1.5802,-3.32056 c 0,0 4.25231,1.44345 4.52547,1.45634 l 10.10763,2.73832 c 0,0 -1.3695,7.45104 -2.71204,9.81164 -1.34252,2.36061 -3.91344,3.42815 -5.47698,3.74164 -1.56355,0.3135 -4.88172,-0.0985 -6.09048,-0.32965 -1.20875,-0.23122 -2.01737,-0.0796 -2.39109,0.12736 -0.37372,0.20695 -1.77051,-0.0603 -2.29934,-1.08025 -0.52884,-1.02004 -0.0396,-0.17291 -3.00462,-2.78774 -2.96505,-2.61485 -3.84232,-6.3661 -2.07079,-12.64282 z"
       id="path4264"
       inkscape:connector-curvature="0" />
    <path
       style="fill:#fece00;fill-opacity:1;fill-rule:evenodd;stroke:none"
       d="m 162.68705,480.43008 c 0.20344,-2.12322 -2.3792,-2.27941 -3.12205,-2.39898 -0.74286,-0.11957 -3.05099,-0.65117 -3.62194,-0.96307 -0.57094,-0.31191 -1.24672,-0.19346 -1.33946,0.64465 -0.0928,0.83812 0.58777,1.28359 0.58777,1.28359 0,0 -0.89947,0.34595 -0.65383,1.18122 0.24562,0.83526 1.29739,1.57698 1.29739,1.57698 0,0 -0.31833,0.83998 0.0331,1.35766 0.35144,0.51766 0.98398,1.44946 1.73289,1.77289 0.74891,0.32343 1.05725,0.35989 1.42885,0.18322"
       id="path4229"
       inkscape:connector-curvature="0" />
    <path
       style="fill:#ffffff;fill-opacity:0.37647059;fill-rule:evenodd;stroke:none"
       d="m 161.75356,479.21506 c -2.39401,-0.22124 -1.30578,0.34889 -2.72194,0.32861 -1.41617,-0.0203 -2.63475,-0.78243 -3.05717,-1.267 -0.42244,-0.48455 -0.32226,-1.00835 0.19186,-0.78471 0.51409,0.22364 0.61816,0.48023 1.60175,0.72405 0.98358,0.24384 3.60535,0.43906 3.9855,0.99905 z"
       id="path4242"
       inkscape:connector-curvature="0" />
    <path
       style="fill:#000000;fill-opacity:0.21568627;fill-rule:evenodd;stroke:none"
       d="m 155.18909,478.99803 c -0.0231,0.009 -0.89284,0.35659 -0.65047,1.1808 0.24563,0.83526 1.29646,1.5741 1.29646,1.5741 0,0 -3e-4,0.003 -3e-4,0.003 0.0103,0.006 0.0211,0.0132 0.031,0.0198 -0.0656,0.52464 3.1e-4,1.10749 0.21493,1.64219 0.36694,0.52091 0.90068,1.20002 1.51883,1.46697 0.74891,0.32343 1.02212,0.23527 1.43027,0.18309 0.19293,-0.0246 0.43146,-0.11469 0.55687,-0.27287 -2.68749,-0.52413 -2.74886,-1.83435 -2.6926,-2.48158 0.54743,0.0416 1.29228,0.0314 2.30502,-0.0777 -2.61645,-1.13923 -2.14619,-2.09466 -2.07208,-2.35941 -0.95751,-0.18502 -1.63513,-0.66754 -1.9376,-0.8788 z"
       id="path4244"
       inkscape:connector-curvature="0"
       sodipodi:nodetypes="csccccssccccc" />
    <path
       style="fill:#fece00;fill-opacity:1;fill-rule:evenodd;stroke:none"
       d="m 165.1602,476.33113 c -2.33139,-1.23423 -2.70227,-2.00335 -3.06972,-1.84842 -0.36747,0.15492 -1.07424,0.19991 -0.42165,1.96886 -1.70299,-0.28071 -1.43051,0.64978 -1.35834,0.97889 0.0722,0.32912 0.92045,0.60399 0.82131,1.71113 -0.0993,1.10714 2.38015,2.3922 2.38015,2.3922 l 1.97151,-4.42009 z"
       id="path4225"
       inkscape:connector-curvature="0" />
    <path
       style="fill:#ffffff;fill-opacity:0.37647059;fill-rule:evenodd;stroke:none"
       d="m 162.14282,475.03325 c -0.18166,0.0667 -0.23935,0.4272 -0.0378,0.66845 0.2016,0.24125 1.16324,1.10087 1.35926,1.19467 0.196,0.0938 1.18714,0.32843 0.88125,-0.19178 -0.30589,-0.52022 -2.07748,-1.73747 -2.20274,-1.67134 z"
       id="path4227"
       inkscape:connector-curvature="0" />
    <path
       style="fill:#ffffff;fill-opacity:0.37647059;fill-rule:evenodd;stroke:none"
       d="m 153.89406,481.70959 c -0.23842,4.52921 5.19832,4.71212 5.19497,4.8528 0,0 -3.05041,-1.03635 -3.61352,-3.95962 0,0 -0.30723,-0.45254 -1.58145,-0.89318 z"
       id="path4268"
       inkscape:connector-curvature="0"
       sodipodi:nodetypes="ccc" />
    <path
       inkscape:connector-curvature="0"
       style="fill:#000000;fill-opacity:0.21568627;fill-rule:evenodd;stroke:none"
       d="m 151.6902,480.69555 c -1.30533,5.04856 -0.80224,8.39879 1.18455,10.83892 -0.31808,-1.02409 -0.8056,-2.89026 -0.79556,-4.75699 0.0148,-2.75367 0.39997,-3.53587 0.60849,-3.54521 0.20851,-0.009 1.17692,1.41558 1.11563,1.11837 0,0 -0.60694,-2.08614 -0.53676,-2.76186 -0.22653,-0.10244 -0.46985,0.25471 -0.46985,0.25471 l -1.1065,-1.14794 z"
       id="path4270" />
    <path
       inkscape:connector-curvature="0"
       style="fill:#000000;fill-opacity:0.21568627;fill-rule:evenodd;stroke:none"
       d="m 174.19357,490.47505 -6.36898,-1.00248 c 0,0 1.05766,1.07002 0.98666,1.6471 -0.071,0.5771 -0.49196,1.32216 -2.67804,2.04598 -2.18606,0.72382 -6.60635,-0.042 -7.40408,-0.19459 -0.79775,-0.15259 -0.0997,0.53108 0.2964,0.72497 0.39604,0.19389 1.0362,0.75265 0.43336,1.228 -0.51462,0.40581 -1.87793,0.29906 -2.94466,-0.16298 0.1754,0.15351 0.22488,0.26419 0.43813,0.6755 0.52882,1.02003 1.92561,1.28722 2.29934,1.08025 0.3737,-0.20695 1.18232,-0.35856 2.3911,-0.12737 1.20874,0.23122 4.52691,0.64318 6.09045,0.32968 1.56354,-0.31352 4.13448,-1.38104 5.477,-3.74165 0.33272,-0.585 0.66856,-1.48299 0.98332,-2.50241 z"
       id="path4275" />
    <path
       style="fill:#000000;fill-opacity:0.21568627;fill-rule:evenodd;stroke:none"
       d="m 175.96148,473.99756 c 0.44687,0.82056 0.57141,1.88135 -0.45538,2.7468 0.17307,-0.5733 0.37066,-1.81838 -0.29095,-3.65818 0.012,-3e-4 0.0268,10e-4 0.0398,0.002 0.25038,0.23174 0.5092,0.54703 0.70652,0.90937 z"
       id="path4009"
       inkscape:connector-curvature="0" />
    <path
       style="fill:#fece00;fill-opacity:1;fill-rule:evenodd;stroke:none"
       d="m 165.98785,475.18317 c 6.71574,-3.95007 13.46411,2.84573 14.023,5.33998 0.55892,2.49427 -0.18681,8.74793 -4.25247,10.22244 -4.06566,1.47453 -10.70685,-1.01203 -12.68236,-4.81326 -1.97553,-3.80126 0.15931,-9.13019 2.91183,-10.74916 z"
       id="path4050"
       inkscape:connector-curvature="0"
       sodipodi:nodetypes="sssss" />
    <path
       style="fill:#ffffff;fill-opacity:0.37647059;fill-rule:evenodd;stroke:none"
       d="m 166.06863,479.11749 c -0.16652,-2.77957 2.8846,-3.65987 3.76426,-3.7844 0.87964,-0.12453 2.98333,-0.17257 3.7092,0.50681 0.72588,0.67937 0.93635,1.46286 0.27398,1.62894 -0.66237,0.1661 -1.97711,-0.37818 -2.38577,-0.47886 -0.40865,-0.10069 -1.21217,-0.72736 -2.49668,-0.25235 -1.28449,0.475 -1.91924,0.93187 -2.47035,1.84725 -0.35072,0.58253 -0.39464,0.53261 -0.39464,0.53261 z"
       id="path4053"
       inkscape:connector-curvature="0"
       sodipodi:nodetypes="cssssssc" />
    <path
       style="fill:#000000;fill-opacity:0.21568627;fill-rule:evenodd;stroke:none"
       d="m 168.42542,480.27774 c 0.73718,-3.91298 4.31482,-2.5417 5.24304,-1.27183 0.92823,1.26988 1.12483,1.94937 -0.17338,2.08391 -1.2982,0.13456 -1.65483,-1.00346 -1.84253,-1.14071 -0.18771,-0.13726 -0.47138,-0.59691 -1.56479,-0.35561 -1.09341,0.24128 -1.66234,0.68424 -1.66234,0.68424 z"
       id="path4055"
       inkscape:connector-curvature="0" />
    <path
       style="fill:#fece00;fill-opacity:1;fill-rule:evenodd;stroke:none"
       d="m 173.31696,472.80383 c -0.51226,2.92788 0.82794,3.24792 1.86943,3.7975 0.44594,0.49938 1.00716,0.47932 0.37897,-0.89896 -0.62819,-1.37827 -1.00261,-0.66956 -2.2484,-2.89854 z"
       id="path4063"
       inkscape:connector-curvature="0" />
    <path
       sodipodi:nodetypes="ssssss"
       inkscape:connector-curvature="0"
       id="path4207"
       d="m 171.65732,484.36619 c -0.0224,0.66514 -0.15136,1.30482 -1.04774,1.82457 -0.32089,0.18604 -3.60465,-1.12231 -4.16516,-2.18559 -0.56052,-1.06326 0.52778,-2.30915 1.30023,-2.5987 0.33791,-0.12669 1.03029,-0.34827 1.39395,-0.0849 0.598,0.43314 2.54392,2.29935 2.51872,3.04461 z"
       style="fill:#000000;fill-opacity:1;fill-rule:evenodd;stroke:none" />
    <path
       sodipodi:nodetypes="ccscc"
       inkscape:connector-curvature="0"
       id="path4211"
       d="m 175.72427,484.11581 c -0.0214,0.46292 -0.12806,1.98875 0.37276,2.12053 0.79073,0.1746 2.59295,-0.18786 2.86312,-0.45145 0.27014,-0.26361 1.45622,-2.22734 -0.16977,-3.42497 -0.98679,-0.19275 -2.87833,1.16941 -3.06611,1.75589 z"
       style="fill:#000000;fill-opacity:1;fill-rule:evenodd;stroke:none" />
    <path
       transform="matrix(0.35412207,0.09318435,-0.09318175,0.35413188,9.3247756,269.51672)"
       d="m 594.5884,446.50424 a 0.79549515,0.79549515 0 1 1 -1.59099,0 0.79549515,0.79549515 0 1 1 1.59099,0 z"
       sodipodi:ry="0.79549515"
       sodipodi:rx="0.79549515"
       sodipodi:cy="446.50424"
       sodipodi:cx="593.79291"
       id="path4213"
       style="fill:#ffffff;fill-opacity:1;fill-rule:evenodd;stroke:none"
       sodipodi:type="arc" />
    <path
       style="fill:#000000;fill-opacity:0.21568627;fill-rule:evenodd;stroke:none"
       d="m 166.05069,475.16513 c -0.021,0.005 -0.0405,0.0118 -0.0615,0.0172 -2.75253,1.61896 -4.8881,6.95029 -2.91259,10.75155 1.90469,3.66497 8.14593,6.1081 12.23489,4.95699 0.15167,-0.0437 0.29974,-0.0911 0.44441,-0.14358 0.25313,-0.0917 0.49364,-0.2049 0.72474,-0.33161 9.9e-4,-3.1e-4 0.002,3.2e-4 0.004,0 3.42764,-1.91254 4.05178,-7.5557 3.52792,-9.89347 -0.282,-1.25858 -2.14123,-3.61212 -4.77567,-5.12794 -0.0761,-0.0318 -0.15156,-0.062 -0.22904,-0.0922 1.39156,1.27253 2.5493,2.80035 3.02197,3.80492 0.76861,1.63349 0.84017,6.91902 -0.53328,8.6833 -1.37344,1.76428 -3.68675,2.53691 -7.60964,1.38111 -3.92289,-1.15578 -5.29548,-3.62342 -6.13624,-5.58602 -0.84077,-1.9626 0.46849,-6.88531 2.17759,-8.32433 l 0.12307,-0.0956 z"
       id="path4218"
       inkscape:connector-curvature="0" />
    <path
       style="fill:#ff6600;fill-opacity:1;fill-rule:evenodd;stroke:none"
       d="m 170.69842,489.05595 c 0.5245,-3.65811 4.8139,-2.10504 5.0151,-1.15879 0.20122,0.94626 0.1111,2.99932 -1.15105,3.93639 -0.19022,-0.005 -3.87777,-1.12396 -3.86405,-2.7776 z"
       id="path4067"
       inkscape:connector-curvature="0" />
    <path
       style="fill:#000000;fill-opacity:0.24705882;fill-rule:evenodd;stroke:none"
       d="m 171.50822,488.31902 c -0.26503,0.22003 -0.53393,0.71007 -0.49961,0.78034 0.0342,0.0703 1.53527,1.63143 3.38446,2.28773 0,0 -0.95678,-0.32635 -2.88485,-3.06807 z"
       id="path4069"
       inkscape:connector-curvature="0" />
    <path
       style="fill:#ffffff;fill-opacity:0.24705882;fill-rule:evenodd;stroke:none"
       d="m 173.99579,487.55265 c 0.72223,0.88665 0.5538,2.01701 0.43718,2.37691 -0.1166,0.3599 0.3599,0.11662 0.60101,-0.39464 0.24113,-0.51128 0.1425,-1.66087 -0.35699,-1.96345 -0.49952,-0.30257 -0.73382,-0.0767 -0.6812,-0.0187 z"
       id="path4071"
       inkscape:connector-curvature="0" />
    <path
       sodipodi:type="arc"
       style="fill:#ffffff;fill-opacity:1;fill-rule:evenodd;stroke:none"
       id="path4272"
       sodipodi:cx="593.79291"
       sodipodi:cy="446.50424"
       sodipodi:rx="0.79549515"
       sodipodi:ry="0.79549515"
       d="m 594.5884,446.50424 a 0.79549515,0.79549515 0 1 1 -1.59099,0 0.79549515,0.79549515 0 1 1 1.59099,0 z"
       transform="matrix(0.4973886,0.13088376,-0.13088014,0.49740235,-69.050727,182.335)" />
    <rect
       style="fill:none;stroke:none"
       id="rect3052"
       width="32"
       height="32"
       x="149.3679"
       y="472.67987"
       ry="0.13186571" />
  </g>
</svg>
